<svg viewBox="-4 0 393 393.99003" xmlns="http://www.w3.org/2000/svg">
<path d="m368.3125 0h-351.261719c-6.195312-.0117188-11.875 3.449219-14.707031 8.960938-2.871094 5.585937-2.3671875 12.3125 1.300781 17.414062l128.6875 181.28125c.042969.0625.089844.121094.132813.183594 4.675781 6.3125 7.203125 13.957031 7.21875 21.816406v147.796875c-.027344 4.378906 1.691406 8.582031 4.777344 11.6875 3.085937 3.105469 7.28125 4.847656 11.65625 4.847656 2.226562 0 4.425781-.445312 6.480468-1.296875l72.3125-27.574218c6.480469-1.976563 10.78125-8.089844 10.78125-15.453126v-120.007812c.011719-7.855469 2.542969-15.503906 7.214844-21.816406.042969-.0625.089844-.121094.132812-.183594l128.683594-181.289062c3.667969-5.097657 4.171875-11.820313 1.300782-17.40625-2.832032-5.511719-8.511719-8.9726568-14.710938-8.960938z"/>
</svg>